<?xml version="1.0" standalone="no"?>
<!DOCTYPE svg PUBLIC "-//W3C//DTD SVG 20010904//EN"
 "http://www.w3.org/TR/2001/REC-SVG-20010904/DTD/svg10.dtd">
<svg version="1.0" xmlns="http://www.w3.org/2000/svg"
 width="441.000000pt" height="441.000000pt" viewBox="0 0 441.000000 441.000000"
 preserveAspectRatio="xMidYMid meet">
<metadata>
Created by potrace 1.14, written by Peter Selinger 2001-2017
</metadata>
<g transform="translate(0.000000,441.000000) scale(0.100000,-0.100000)"
fill="#000000" stroke="none">
<path d="M4340 4061 c-6 -12 -37 -27 -82 -41 -40 -12 -89 -27 -108 -33 -19 -6
-40 -12 -45 -13 -30 -5 -299 -101 -355 -126 -119 -53 -174 -107 -199 -196 -9
-30 -9 -30 39 -34 130 -13 222 -117 222 -253 l0 -62 44 8 c63 12 117 43 157
89 58 68 149 226 266 460 67 132 80 155 90 153 13 -3 34 24 29 38 -3 8 -9 7
-20 -4 -9 -9 -69 -62 -135 -118 -274 -235 -283 -244 -283 -267 0 -24 -19 -42
-45 -42 -66 0 -56 93 10 95 14 0 62 31 116 75 149 121 272 223 299 247 14 13
28 23 32 23 5 0 8 5 8 10 0 17 -29 11 -40 -9z"/>
<path d="M1517 3994 c-1 -1 -36 -5 -77 -9 -93 -8 -194 -27 -320 -60 -80 -20
-274 -97 -349 -138 -290 -157 -523 -393 -639 -647 -79 -172 -105 -289 -104
-470 0 -120 3 -142 26 -204 66 -175 201 -268 411 -282 87 -5 170 7 320 49 89
25 281 89 320 107 11 5 58 25 105 45 75 32 279 135 410 207 25 14 95 51 155
83 61 32 139 74 175 93 106 57 597 304 705 354 105 49 237 110 293 134 104 46
103 44 93 62 -15 26 -179 192 -246 248 -224 188 -533 339 -795 388 -14 3 -47
9 -75 15 -76 15 -397 34 -408 25z"/>
<path d="M3643 3460 c-22 -9 -157 -98 -668 -441 -159 -107 -382 -255 -495
-329 -230 -150 -898 -585 -975 -635 -27 -17 -95 -61 -150 -97 -159 -103 -506
-327 -548 -353 -9 -5 -83 -53 -164 -105 -82 -52 -209 -133 -283 -180 -153 -96
-176 -113 -208 -154 -24 -31 -29 -70 -10 -82 38 -24 190 15 393 100 17 7 62
26 100 41 39 15 79 31 90 36 11 4 61 25 110 44 50 20 104 42 120 49 17 7 102
41 190 76 88 34 174 68 190 75 383 161 583 207 790 180 326 -42 509 -228 507
-514 -2 -189 -73 -348 -229 -512 -100 -104 -284 -241 -365 -272 -10 -3 -18
-11 -18 -17 0 -8 6 -8 20 0 11 6 20 9 20 6 0 -19 330 107 422 161 31 18 59 33
62 33 3 0 43 25 89 57 567 389 865 1005 813 1682 -7 94 -33 249 -57 331 -7 25
-13 50 -15 55 -5 24 -77 211 -85 221 -6 7 26 52 90 127 282 332 360 456 264
417z"/>
</g>
</svg>
