<?xml version="1.0" encoding="utf-8"?>
<!-- Generator: Adobe Illustrator 23.0.3, SVG Export Plug-In . SVG Version: 6.00 Build 0)  -->
<svg version="1.1"
	 id="Calque_1" image-rendering="optimizeQuality" text-rendering="geometricPrecision" shape-rendering="geometricPrecision"
	 xmlns="http://www.w3.org/2000/svg" xmlns:xlink="http://www.w3.org/1999/xlink" x="0px" y="0px" viewBox="0 0 267 512.5"
	 style="enable-background:new 0 0 267 512.5;" xml:space="preserve">
<style type="text/css">
	.st0{fill:#FFFFFF;}
</style>
<path class="st0" d="M133.5,0c36.7,0,70.1,15,94.3,39.2l0.1,0.1C252,63.5,267,96.8,267,133.5v151.2c0,36.7-15,70-39.2,94.2l-0.1,0.1
	c-24.2,24.2-57.6,39.2-94.2,39.2c-36.7,0-70.1-15-94.3-39.2l-0.1-0.1C15,354.7,0,321.4,0,284.7V133.5c0-36.7,15-70,39.2-94.3
	l0.1-0.1C63.5,15,96.8,0,133.5,0z M98.8,447.3l34.7,34.7l34.8-34.7l15.2,15.2l-50,49.9l-49.9-49.9L98.8,447.3L98.8,447.3z
	 M133.5,316.4c12.5,0,22.7-10.2,22.7-22.7v-30.3c0-12.5-10.2-22.7-22.7-22.7s-22.7,10.2-22.7,22.7v30.3
	C110.8,306.2,121,316.4,133.5,316.4z M133.5,21.6c-30.8,0-58.8,12.6-79.1,32.8c-20.3,20.3-32.9,48.3-32.9,79.1v151.2
	c0,30.8,12.6,58.8,32.8,79.1c20.3,20.3,48.3,32.9,79.1,32.9s58.8-12.6,79.1-32.9c20.3-20.3,32.9-48.3,32.9-79.1V133.5
	c0-30.8-12.6-58.8-32.9-79.1C192.3,34.1,164.3,21.6,133.5,21.6z"/>
</svg>
