<?xml version="1.0" encoding="utf-8"?>
<!-- Generator: Adobe Illustrator 23.0.3, SVG Export Plug-In . SVG Version: 6.00 Build 0)  -->
<svg version="1.1"
	 id="Calque_1" image-rendering="optimizeQuality" text-rendering="geometricPrecision" shape-rendering="geometricPrecision"
	 xmlns="http://www.w3.org/2000/svg" xmlns:xlink="http://www.w3.org/1999/xlink" x="0px" y="0px" viewBox="0 0 267 512.5"
	 style="enable-background:new 0 0 267 512.5;" xml:space="preserve">
<style type="text/css">
	.st0{fill:#445671;}
</style>
<path class="st0" d="M133.5,512.4c-36.7,0-70.1-15-94.3-39.2l-0.1-0.1C15,448.9,0,415.6,0,378.9V227.7c0-36.7,15-70,39.2-94.2
	l0.1-0.1c24.2-24.2,57.6-39.2,94.2-39.2c36.7,0,70.1,15,94.3,39.2l0.1,0.1C252,157.7,267,191,267,227.7v151.2
	c0,36.7-15,70-39.2,94.3l-0.1,0.1C203.5,497.4,170.2,512.4,133.5,512.4z M168.2,65.1l-34.7-34.7L98.7,65.1L83.5,49.9l50-49.9
	l49.9,49.9L168.2,65.1L168.2,65.1z M133.5,196c-12.5,0-22.7,10.2-22.7,22.7V249c0,12.5,10.2,22.7,22.7,22.7s22.7-10.2,22.7-22.7
	v-30.3C156.2,206.2,146,196,133.5,196z M133.5,490.8c30.8,0,58.8-12.6,79.1-32.8c20.3-20.3,32.9-48.3,32.9-79.1V227.7
	c0-30.8-12.6-58.8-32.8-79.1c-20.3-20.3-48.3-32.9-79.1-32.9s-58.8,12.6-79.1,32.9s-32.9,48.3-32.9,79.1v151.2
	c0,30.8,12.6,58.8,32.9,79.1C74.7,478.3,102.7,490.8,133.5,490.8z"/>
</svg>
